<svg xmlns="http://www.w3.org/2000/svg" width="1000" height="720" viewBox="0 0 1000 720">
<rect width="100%" height="100%" fill="#ffffff"/>
<text x="88" y="34" font-family="Arial, sans-serif" font-size="24" font-weight="700" fill="#20252b">v4 pre-landing trajectory prediction</text>
<text x="88" y="58" font-family="Arial, sans-serif" font-size="14" fill="#58616b">Prompt-macro within-prompt AUC; Qwen3-0.6B; frozen test prompts</text>
<line x1="88" y1="390.0" x2="960" y2="390.0" stroke="#d8dde3"/>
<text x="74" y="395.0" text-anchor="end" font-family="Arial, sans-serif" font-size="13" fill="#58616b">0.3</text>
<line x1="88" y1="302.0" x2="960" y2="302.0" stroke="#d8dde3" stroke-dasharray="6 5"/>
<text x="74" y="307.0" text-anchor="end" font-family="Arial, sans-serif" font-size="13" fill="#58616b">0.5</text>
<line x1="88" y1="214.0" x2="960" y2="214.0" stroke="#d8dde3"/>
<text x="74" y="219.0" text-anchor="end" font-family="Arial, sans-serif" font-size="13" fill="#58616b">0.7</text>
<line x1="88" y1="126.0" x2="960" y2="126.0" stroke="#d8dde3"/>
<text x="74" y="131.0" text-anchor="end" font-family="Arial, sans-serif" font-size="13" fill="#58616b">0.9</text>
<line x1="88" y1="82.0" x2="960" y2="82.0" stroke="#d8dde3"/>
<text x="74" y="87.0" text-anchor="end" font-family="Arial, sans-serif" font-size="13" fill="#58616b">1.0</text>
<text x="24" y="236.0" transform="rotate(-90 24 236.0)" text-anchor="middle" font-family="Arial, sans-serif" font-size="14" fill="#39424c">Pairwise AUC</text>
<polyline points="88.0,302.0 233.3,290.3 378.7,266.9 524.0,224.5 669.3,159.9 814.7,162.6 960.0,206.2" fill="none" stroke="#c43c39" stroke-width="3"/><circle cx="88.0" cy="302.0" r="4" fill="#c43c39"/><circle cx="233.3" cy="290.3" r="4" fill="#c43c39"/><circle cx="378.7" cy="266.9" r="4" fill="#c43c39"/><circle cx="524.0" cy="224.5" r="4" fill="#c43c39"/><circle cx="669.3" cy="159.9" r="4" fill="#c43c39"/><circle cx="814.7" cy="162.6" r="4" fill="#c43c39"/><circle cx="960.0" cy="206.2" r="4" fill="#c43c39"/>
<polyline points="88.0,302.0 233.3,276.6 378.7,253.7 524.0,231.3 669.3,162.3 814.7,163.8 960.0,207.3" fill="none" stroke="#2878a8" stroke-width="3"/><circle cx="88.0" cy="302.0" r="4" fill="#2878a8"/><circle cx="233.3" cy="276.6" r="4" fill="#2878a8"/><circle cx="378.7" cy="253.7" r="4" fill="#2878a8"/><circle cx="524.0" cy="231.3" r="4" fill="#2878a8"/><circle cx="669.3" cy="162.3" r="4" fill="#2878a8"/><circle cx="814.7" cy="163.8" r="4" fill="#2878a8"/><circle cx="960.0" cy="207.3" r="4" fill="#2878a8"/>
<polyline points="88.0,302.0 233.3,302.0 378.7,296.6 524.0,324.4 669.3,282.0 814.7,196.9 960.0,258.0" fill="none" stroke="#2e8b57" stroke-width="3"/><circle cx="88.0" cy="302.0" r="4" fill="#2e8b57"/><circle cx="233.3" cy="302.0" r="4" fill="#2e8b57"/><circle cx="378.7" cy="296.6" r="4" fill="#2e8b57"/><circle cx="524.0" cy="324.4" r="4" fill="#2e8b57"/><circle cx="669.3" cy="282.0" r="4" fill="#2e8b57"/><circle cx="814.7" cy="196.9" r="4" fill="#2e8b57"/><circle cx="960.0" cy="258.0" r="4" fill="#2e8b57"/>
<polyline points="88.0,302.0 233.3,297.9 378.7,320.7 524.0,354.4 669.3,309.7 814.7,340.3 960.0,334.9" fill="none" stroke="#8c6d31" stroke-width="3"/><circle cx="88.0" cy="302.0" r="4" fill="#8c6d31"/><circle cx="233.3" cy="297.9" r="4" fill="#8c6d31"/><circle cx="378.7" cy="320.7" r="4" fill="#8c6d31"/><circle cx="524.0" cy="354.4" r="4" fill="#8c6d31"/><circle cx="669.3" cy="309.7" r="4" fill="#8c6d31"/><circle cx="814.7" cy="340.3" r="4" fill="#8c6d31"/><circle cx="960.0" cy="334.9" r="4" fill="#8c6d31"/>
<line x1="88" y1="418" x2="112" y2="418" stroke="#c43c39" stroke-width="3"/>
<circle cx="100" cy="418" r="4" fill="#c43c39"/>
<text x="120" y="423" font-family="Arial, sans-serif" font-size="13" fill="#20252b">Residual L18</text>
<line x1="303" y1="418" x2="327" y2="418" stroke="#2878a8" stroke-width="3"/>
<circle cx="315" cy="418" r="4" fill="#2878a8"/>
<text x="335" y="423" font-family="Arial, sans-serif" font-size="13" fill="#20252b">Visible-prefix TF-IDF</text>
<line x1="518" y1="418" x2="542" y2="418" stroke="#2e8b57" stroke-width="3"/>
<circle cx="530" cy="418" r="4" fill="#2e8b57"/>
<text x="550" y="423" font-family="Arial, sans-serif" font-size="13" fill="#20252b">Next-token stats</text>
<line x1="733" y1="418" x2="757" y2="418" stroke="#8c6d31" stroke-width="3"/>
<circle cx="745" cy="418" r="4" fill="#8c6d31"/>
<text x="765" y="423" font-family="Arial, sans-serif" font-size="13" fill="#20252b">Prefix model judge</text>
<line x1="88" y1="637.1" x2="960" y2="637.1" stroke="#d8dde3"/>
<text x="74" y="642.1" text-anchor="end" font-family="Arial, sans-serif" font-size="13" fill="#58616b">-0.10</text>
<line x1="88" y1="572.5" x2="960" y2="572.5" stroke="#d8dde3" stroke-dasharray="6 5"/>
<text x="74" y="577.5" text-anchor="end" font-family="Arial, sans-serif" font-size="13" fill="#58616b">+0.00</text>
<line x1="88" y1="553.1" x2="960" y2="553.1" stroke="#8fbf9f" stroke-dasharray="6 5"/>
<text x="74" y="558.1" text-anchor="end" font-family="Arial, sans-serif" font-size="13" fill="#58616b">+0.03</text>
<line x1="88" y1="507.8" x2="960" y2="507.8" stroke="#d8dde3"/>
<text x="74" y="512.8" text-anchor="end" font-family="Arial, sans-serif" font-size="13" fill="#58616b">+0.10</text>
<text x="24" y="566.0" transform="rotate(-90 24 566.0)" text-anchor="middle" font-family="Arial, sans-serif" font-size="14" fill="#39424c">Residual - cheap envelope</text>
<line x1="88.0" y1="572.5" x2="88.0" y2="572.5" stroke="#c43c39" stroke-width="2"/>
<line x1="83.0" y1="572.5" x2="93.0" y2="572.5" stroke="#c43c39" stroke-width="2"/>
<line x1="83.0" y1="572.5" x2="93.0" y2="572.5" stroke="#c43c39" stroke-width="2"/>
<circle cx="88.0" cy="572.5" r="4" fill="#c43c39"/>
<line x1="233.3" y1="560.5" x2="233.3" y2="633.8" stroke="#c43c39" stroke-width="2"/>
<line x1="228.3" y1="560.5" x2="238.3" y2="560.5" stroke="#c43c39" stroke-width="2"/>
<line x1="228.3" y1="633.8" x2="238.3" y2="633.8" stroke="#c43c39" stroke-width="2"/>
<circle cx="233.3" cy="592.7" r="4" fill="#c43c39"/>
<line x1="378.7" y1="566.5" x2="378.7" y2="632.7" stroke="#c43c39" stroke-width="2"/>
<line x1="373.7" y1="566.5" x2="383.7" y2="566.5" stroke="#c43c39" stroke-width="2"/>
<line x1="373.7" y1="632.7" x2="383.7" y2="632.7" stroke="#c43c39" stroke-width="2"/>
<circle cx="378.7" cy="591.9" r="4" fill="#c43c39"/>
<line x1="524.0" y1="491.0" x2="524.0" y2="634.0" stroke="#c43c39" stroke-width="2"/>
<line x1="519.0" y1="491.0" x2="529.0" y2="491.0" stroke="#c43c39" stroke-width="2"/>
<line x1="519.0" y1="634.0" x2="529.0" y2="634.0" stroke="#c43c39" stroke-width="2"/>
<circle cx="524.0" cy="562.5" r="4" fill="#c43c39"/>
<line x1="669.3" y1="561.7" x2="669.3" y2="572.5" stroke="#c43c39" stroke-width="2"/>
<line x1="664.3" y1="561.7" x2="674.3" y2="561.7" stroke="#c43c39" stroke-width="2"/>
<line x1="664.3" y1="572.5" x2="674.3" y2="572.5" stroke="#c43c39" stroke-width="2"/>
<circle cx="669.3" cy="568.9" r="4" fill="#c43c39"/>
<line x1="814.7" y1="567.1" x2="814.7" y2="572.5" stroke="#c43c39" stroke-width="2"/>
<line x1="809.7" y1="567.1" x2="819.7" y2="567.1" stroke="#c43c39" stroke-width="2"/>
<line x1="809.7" y1="572.5" x2="819.7" y2="572.5" stroke="#c43c39" stroke-width="2"/>
<circle cx="814.7" cy="570.7" r="4" fill="#c43c39"/>
<line x1="960.0" y1="543.4" x2="960.0" y2="596.7" stroke="#c43c39" stroke-width="2"/>
<line x1="955.0" y1="543.4" x2="965.0" y2="543.4" stroke="#c43c39" stroke-width="2"/>
<line x1="955.0" y1="596.7" x2="965.0" y2="596.7" stroke="#c43c39" stroke-width="2"/>
<circle cx="960.0" cy="570.8" r="4" fill="#c43c39"/>
<text x="88.0" y="680" text-anchor="middle" font-family="Arial, sans-serif" font-size="13" fill="#58616b">0</text>
<text x="233.3" y="680" text-anchor="middle" font-family="Arial, sans-serif" font-size="13" fill="#58616b">2</text>
<text x="378.7" y="680" text-anchor="middle" font-family="Arial, sans-serif" font-size="13" fill="#58616b">4</text>
<text x="524.0" y="680" text-anchor="middle" font-family="Arial, sans-serif" font-size="13" fill="#58616b">6</text>
<text x="669.3" y="680" text-anchor="middle" font-family="Arial, sans-serif" font-size="13" fill="#58616b">8</text>
<text x="814.7" y="680" text-anchor="middle" font-family="Arial, sans-serif" font-size="13" fill="#58616b">10</text>
<text x="960.0" y="680" text-anchor="middle" font-family="Arial, sans-serif" font-size="13" fill="#58616b">12</text>
<text x="524.0" y="706" text-anchor="middle" font-family="Arial, sans-serif" font-size="14" fill="#39424c">Generated tokens before checkpoint</text>
<text x="960" y="466" text-anchor="end" font-family="Arial, sans-serif" font-size="12" fill="#5d6b64">frozen success margin +0.03</text>
</svg>
